<svg width="100" height="33" viewBox="0 0 100 33" fill="none" xmlns="http://www.w3.org/2000/svg">
<g clip-path="url(#clip0_2_286)">
<path d="M23.0255 32.9997H2.99892C2.60685 33.0008 2.21841 32.9258 1.85582 32.7793C1.49323 32.6327 1.16358 32.4173 0.885782 32.1454C0.60798 31.8736 0.387479 31.5505 0.236827 31.1948C0.0861743 30.8391 0.0083409 30.4579 0.0078125 30.0726V24.4795H23.0416C23.8342 24.4816 24.5935 24.7926 25.1529 25.3444C25.7122 25.8963 26.0257 26.6436 26.0247 27.4225V30.0765C26.0236 30.4619 25.9453 30.8433 25.7942 31.1991C25.6431 31.5548 25.4222 31.8779 25.1441 32.1497C24.8659 32.4215 24.5361 32.6368 24.1733 32.7833C23.8105 32.9299 23.4218 33.0048 23.0295 33.0038" fill="#94C947"/>
<path d="M23.0297 15.9556H0.00390625V24.4758H23.0216C23.4133 24.4779 23.8017 24.4042 24.1644 24.2588C24.5271 24.1134 24.8572 23.8992 25.1357 23.6285C25.4142 23.3578 25.6357 23.0358 25.7875 22.6809C25.9394 22.3261 26.0187 21.9454 26.0208 21.5605V18.9026C26.0197 18.1227 25.7045 17.3749 25.144 16.8226C24.5835 16.2704 23.8234 15.9587 23.0297 15.9556Z" fill="#F7901E"/>
<path d="M26.0208 7.43116H2.99502C2.60294 7.43012 2.2145 7.50506 1.85191 7.65165C1.48933 7.79825 1.15968 8.0136 0.881876 8.28547C0.604074 8.55734 0.383573 8.88041 0.23292 9.2361C0.0822681 9.59179 0.00443465 9.97321 0.00390625 10.3585V15.9514H23.0337C23.4249 15.954 23.8127 15.8808 24.175 15.7358C24.5372 15.5907 24.8668 15.3767 25.1447 15.1062C25.4226 14.8357 25.6434 14.514 25.7944 14.1594C25.9455 13.8049 26.0238 13.4245 26.0248 13.0402L26.0208 7.43116Z" fill="#00B0DA"/>
<path d="M26.0169 7.45087H30.8542C31.5921 7.43533 32.2943 7.13635 32.8105 6.61803C33.3267 6.09971 33.6157 5.4033 33.6155 4.67809V0H28.8668C28.1095 0.00104958 27.3836 0.297567 26.8485 0.824135C26.3134 1.3507 26.0128 2.0644 26.0128 2.80856L26.0169 7.45087Z" fill="#94C947"/>
<path d="M37.9691 18.6962C37.9584 18.7665 37.9644 18.8382 37.9869 18.9057C38.0093 18.9732 38.0475 19.0346 38.0985 19.085C38.1494 19.1354 38.2116 19.1734 38.2801 19.196C38.3487 19.2186 38.4216 19.2252 38.4932 19.2152H41.2303V20.5778H38.1344C36.925 20.5382 36.3648 20.1817 36.3567 19.033V13.6182H41.2303V14.9808H37.9691V16.3196H40.9401V17.6504H37.9691V18.6962Z" fill="#231F20"/>
<path d="M43.8464 20.5621V13.6025H46.4586C48.1759 13.6025 49.7762 14.7908 49.7762 17.0962C49.7762 19.4015 48.1638 20.5621 46.4586 20.5621H43.8464ZM46.0676 19.1995C47.4019 19.1995 48.1113 18.439 48.1113 17.0962C48.1113 15.7534 47.4543 14.9651 46.0676 14.9651H45.4589V19.1995H46.0676Z" fill="#231F20"/>
<path d="M55.1337 19.9245C54.6685 18.7482 54.13 17.6013 53.5212 16.4902L53.2149 20.5621H51.6024L52.1708 13.6025H53.7026C54.4749 14.9582 55.1406 16.3697 55.694 17.8249C56.2624 16.3719 56.9359 14.9609 57.7096 13.6025H59.2414L59.8057 20.5621H58.1933L57.8829 16.4902C57.2758 17.6022 56.7374 18.749 56.2704 19.9245H55.0611H55.1337Z" fill="#231F20"/>
<path d="M65.3848 20.6771C63.2079 20.6771 61.7084 19.2709 61.7084 17.1121C61.7084 14.5056 63.6715 13.4956 65.3767 13.4956C67.0818 13.4956 69.045 14.5056 69.045 17.1121C69.045 19.2669 67.5454 20.6771 65.3848 20.6771ZM67.4325 17.1121C67.4325 15.5672 66.32 14.8899 65.3767 14.8899C64.4334 14.8899 63.3208 15.5672 63.3208 17.1121C63.3208 18.3717 64.1714 19.2827 65.3646 19.2827C66.5578 19.2827 67.4325 18.3677 67.4325 17.1121Z" fill="#231F20"/>
<path d="M70.73 20.5621V13.6025H72.3424C73.2702 14.8205 74.0724 16.1261 74.7369 17.5002V13.6025H76.3494V20.5621H74.7974C74.1152 19.1058 73.3059 17.7103 72.3787 16.3912V20.5621H70.73Z" fill="#231F20"/>
<path d="M80.175 20.5621V14.9651H78.1796V13.6025H83.7788V14.9651H81.7955V20.5621H80.175Z" fill="#231F20"/>
<path d="M88.5154 20.6771C86.3386 20.6771 84.839 19.2709 84.839 17.1121C84.839 14.5056 86.8022 13.4956 88.5073 13.4956C90.2125 13.4956 92.1757 14.5056 92.1757 17.1121C92.1757 19.2669 90.6761 20.6771 88.5154 20.6771ZM90.5632 17.1121C90.5632 15.5672 89.4547 14.8899 88.5073 14.8899C87.56 14.8899 86.4514 15.5672 86.4514 17.1121C86.4514 18.3717 87.3061 19.2827 88.4952 19.2827C89.6844 19.2827 90.5632 18.3677 90.5632 17.1121Z" fill="#231F20"/>
<path d="M94.0662 20.5621V13.6025H95.6786C96.6064 14.8205 97.4085 16.1261 98.0731 17.5002V13.6025H99.6856V20.5621H98.1296C97.4489 19.105 96.6396 17.7094 95.7109 16.3912V20.5621H94.0662Z" fill="#231F20"/>
<path d="M36.139 27.6088V24.4875H37.3081C37.5151 24.4843 37.7205 24.5241 37.9108 24.6043C38.1011 24.6845 38.272 24.8031 38.4124 24.9526C38.5528 25.1022 38.6595 25.2793 38.7256 25.4721C38.7916 25.665 38.8154 25.8694 38.7955 26.0719C38.8138 26.2726 38.7887 26.4747 38.7217 26.6651C38.6547 26.8555 38.5474 27.03 38.4068 27.1767C38.2663 27.3234 38.0957 27.4391 37.9063 27.5163C37.7169 27.5936 37.513 27.6305 37.3081 27.6246L36.139 27.6088ZM37.1347 26.9949C37.2614 27.0069 37.3893 26.9905 37.5086 26.9469C37.628 26.9034 37.7358 26.8338 37.8239 26.7435C37.9119 26.6531 37.978 26.5443 38.0171 26.4253C38.0562 26.3062 38.0674 26.18 38.0498 26.0561C38.0498 25.4579 37.7555 25.1014 37.1347 25.1014H36.8606V27.0146L37.1347 26.9949Z" fill="#231F20"/>
<path d="M40.4765 26.7654C40.4715 26.7971 40.4743 26.8293 40.4846 26.8596C40.4948 26.89 40.5123 26.9176 40.5356 26.9401C40.5588 26.9625 40.5871 26.9792 40.6182 26.9888C40.6492 26.9984 40.6822 27.0006 40.7143 26.9952H41.9236V27.6091H40.541C39.9887 27.5893 39.7347 27.4309 39.7347 26.9159V24.4878H41.9155V25.1017H40.4563V25.7078H41.7866V26.3059H40.4563L40.4765 26.7654Z" fill="#231F20"/>
<path d="M42.8346 26.781C43.1611 26.9361 43.5164 27.0237 43.8787 27.0385C44.1649 27.0385 44.3422 26.979 44.3785 26.7611C44.4148 26.5432 44.0762 26.4443 43.7013 26.3294L43.528 26.266C43.3199 26.224 43.1329 26.1129 42.9985 25.9513C42.8641 25.7896 42.7906 25.5875 42.7903 25.3788C42.7903 24.8361 43.2458 24.4399 44.0601 24.4399C44.382 24.4457 44.6986 24.5215 44.9872 24.6618V25.2639C44.6912 25.1424 44.3763 25.0713 44.0561 25.0538C43.6852 25.0538 43.528 25.1966 43.5239 25.3708C43.5239 25.3708 43.524 25.5412 43.7537 25.6165L43.919 25.6759C44.6164 25.8977 45.1525 26.0719 45.1284 26.7532C45.1042 27.4345 44.5761 27.6564 43.8948 27.6564C43.532 27.649 43.1753 27.5624 42.8508 27.4028L42.8346 26.781Z" fill="#231F20"/>
<path d="M46.4465 27.6091V25.1017H45.5516V24.4878H48.063V25.1017H47.1762V27.6091H46.4465Z" fill="#231F20"/>
<path d="M48.9176 27.6091V24.4878H49.6392V27.6091H48.9176Z" fill="#231F20"/>
<path d="M50.772 27.6091V24.4878H51.5056C51.9219 25.0332 52.2811 25.6183 52.5779 26.2345V24.4878H53.3035V27.6091H52.6061C52.3005 26.9561 51.9377 26.3305 51.5218 25.7394V27.6091H50.772Z" fill="#231F20"/>
<path d="M56.2906 27.6091C56.214 27.3397 56.1334 27.0705 56.0487 26.7892H55.0611C54.9764 27.0705 54.8998 27.3397 54.8152 27.6091H54.0977C54.3925 26.5409 54.7726 25.4973 55.2344 24.4878H55.8713C56.3366 25.4959 56.7169 26.5398 57.0081 27.6091H56.2906ZM55.2425 26.2188H55.8713C55.7746 25.9297 55.6738 25.5374 55.5529 25.2522C55.44 25.5374 55.3312 25.9296 55.2425 26.2227V26.2188Z" fill="#231F20"/>
<path d="M58.2295 27.6091V25.1017H57.3346V24.4878H59.846V25.1017H58.9591V27.6091H58.2295Z" fill="#231F20"/>
<path d="M60.7007 27.6091V24.4878H61.4222V27.6091H60.7007Z" fill="#231F20"/>
<path d="M64.0344 27.6563C63.7098 27.6555 63.3929 27.5598 63.1238 27.3815C62.8547 27.2032 62.6456 26.9506 62.523 26.6552C62.4005 26.3599 62.3702 26.0355 62.4358 25.7232C62.5013 25.4108 62.6599 25.1247 62.8914 24.9012C63.1229 24.6776 63.4167 24.5268 63.7357 24.4677C64.0546 24.4087 64.3842 24.4442 64.6826 24.5697C64.981 24.6951 65.2346 24.9048 65.4114 25.1723C65.5881 25.4398 65.6799 25.753 65.6751 26.0719C65.6845 26.2848 65.6483 26.4972 65.5688 26.6955C65.4893 26.8938 65.3683 27.0735 65.2136 27.2229C65.0589 27.3723 64.874 27.4881 64.6709 27.5627C64.4677 27.6374 64.2509 27.6693 64.0344 27.6563ZM64.9494 26.0719C64.9643 25.9443 64.9516 25.815 64.9121 25.6926C64.8727 25.5702 64.8073 25.4575 64.7203 25.3617C64.6334 25.2659 64.5267 25.1891 64.4075 25.1366C64.2882 25.084 64.159 25.0569 64.0283 25.0569C63.8976 25.0569 63.7685 25.084 63.6492 25.1366C63.53 25.1891 63.4233 25.2659 63.3364 25.3617C63.2494 25.4575 63.184 25.5702 63.1445 25.6926C63.1051 25.815 63.0923 25.9443 63.1072 26.0719C63.0989 26.1958 63.1165 26.3199 63.159 26.4369C63.2015 26.5538 63.268 26.6609 63.3544 26.7516C63.4407 26.8422 63.5451 26.9145 63.661 26.9639C63.777 27.0133 63.902 27.0388 64.0283 27.0388C64.1547 27.0388 64.2797 27.0133 64.3957 26.9639C64.5116 26.9145 64.616 26.8422 64.7023 26.7516C64.7887 26.6609 64.8552 26.5538 64.8977 26.4369C64.9402 26.3199 64.9578 26.1958 64.9494 26.0719Z" fill="#231F20"/>
<path d="M66.6384 27.6089V24.4876H67.3519C67.7703 25.0296 68.1335 25.6107 68.4363 26.2225V24.4756H69.1579V27.5971H68.4363C68.1293 26.9441 67.7651 26.3184 67.3479 25.7274V27.5971L66.6384 27.6089Z" fill="#231F20"/>
<path d="M73.0076 27.3238C72.8001 26.7965 72.5606 26.2821 72.2901 25.7831L72.153 27.6091H71.4354L71.6894 24.4878H72.3787C72.7251 25.0953 73.0229 25.7283 73.2696 26.3811C73.5255 25.7301 73.8272 25.0975 74.1726 24.4878H74.8579L75.1119 27.6091H74.3983L74.2612 25.7831C73.9908 26.2821 73.7512 26.7965 73.5437 27.3238H73.0076Z" fill="#231F20"/>
<path d="M78.0183 27.6091C77.9417 27.3397 77.8611 27.0705 77.7764 26.7892H76.7888C76.7081 27.0705 76.6275 27.3397 76.5469 27.6091H75.8253C76.1199 26.5403 76.5014 25.4965 76.9662 24.4878H77.599C78.0638 25.4965 78.4453 26.5403 78.7399 27.6091H78.0183ZM76.9702 26.2188H77.599C77.5023 25.9297 77.4015 25.5374 77.2805 25.2522C77.1677 25.5374 77.0629 25.9296 76.9702 26.2227V26.2188Z" fill="#231F20"/>
<path d="M81.2916 26.5315C81.56 26.8718 81.8012 27.2321 82.0131 27.609H81.2069C81.012 27.2761 80.7994 26.9535 80.57 26.6425C80.4571 26.488 80.4087 26.4404 80.2636 26.4404H80.1628V27.609H79.4413V24.4877H80.7393C80.8724 24.4765 81.0065 24.4938 81.1321 24.5384C81.2578 24.583 81.3721 24.6538 81.4671 24.7461C81.5622 24.8384 81.6357 24.9499 81.6827 25.0728C81.7296 25.1957 81.7488 25.3271 81.739 25.4581C81.739 26.0958 81.3359 26.3296 81.0618 26.3296C81.1625 26.3573 81.2754 26.5077 81.2916 26.5315ZM80.703 25.8503C80.7527 25.8485 80.8015 25.8364 80.8463 25.8151C80.891 25.7938 80.9308 25.7636 80.963 25.7263C80.9953 25.6891 81.0192 25.6457 81.0335 25.5989C81.0477 25.552 81.0518 25.5027 81.0457 25.4542C81.0495 25.4075 81.0436 25.3606 81.0281 25.3163C81.0127 25.272 80.9882 25.2311 80.956 25.1966C80.9238 25.162 80.8848 25.1344 80.8413 25.1153C80.7977 25.0963 80.7507 25.0861 80.703 25.0857H80.1749V25.8344L80.703 25.8503Z" fill="#231F20"/>
<path d="M84.4319 27.6091C84.1417 27.2669 83.8191 26.9525 83.4684 26.6703V27.6091H82.7468V24.4878H83.4684V25.4978C83.7677 25.1858 84.0376 24.8478 84.2746 24.4878H85.0809C84.7184 25.068 84.2822 25.6004 83.7828 26.0722C84.3557 26.5315 84.8774 27.0494 85.3389 27.617L84.4319 27.6091Z" fill="#231F20"/>
<path d="M86.6731 26.7654C86.6682 26.7971 86.671 26.8293 86.6812 26.8596C86.6915 26.89 86.709 26.9176 86.7322 26.9401C86.7554 26.9625 86.7838 26.9792 86.8148 26.9888C86.8459 26.9984 86.8788 27.0006 86.9109 26.9952H88.1203V27.6091H86.7336C86.1854 27.5893 85.9274 27.4309 85.9274 26.9159V24.4878H88.1123V25.1017H86.649V25.7078H87.9832V26.3059H86.649L86.6731 26.7654Z" fill="#231F20"/>
<path d="M89.6602 27.6091V25.1017H88.7653V24.4878H91.2766V25.1017H90.3898V27.6091H89.6602Z" fill="#231F20"/>
<path d="M92.0386 27.6091V24.4878H92.7601V27.6091H92.0386Z" fill="#231F20"/>
<path d="M93.8002 27.6091V24.4878H94.5136C94.9297 25.034 95.2903 25.619 95.59 26.2345V24.4878H96.3116V27.6091H95.6182C95.3112 26.9561 94.947 26.3304 94.5298 25.7394V27.6091H93.8002Z" fill="#231F20"/>
<path d="M100 27.4108C99.6053 27.5911 99.1735 27.6792 98.7383 27.6682C98.529 27.6689 98.3217 27.628 98.1288 27.5479C97.936 27.4678 97.7617 27.3503 97.6163 27.2023C97.471 27.0543 97.3576 26.8789 97.283 26.6867C97.2084 26.4945 97.1742 26.2893 97.1823 26.0838C97.1777 25.8666 97.2185 25.6508 97.3023 25.4498C97.3861 25.2487 97.5111 25.0668 97.6695 24.9152C97.8279 24.7636 98.0163 24.6456 98.2231 24.5686C98.4298 24.4916 98.6505 24.4573 98.8713 24.4676C99.2088 24.475 99.5437 24.527 99.867 24.6222V25.2125C99.5742 25.1512 99.2756 25.1206 98.9762 25.1214C98.8408 25.1078 98.704 25.1227 98.5749 25.1653C98.4459 25.2078 98.3276 25.277 98.228 25.3682C98.1283 25.4593 98.0497 25.5702 97.9973 25.6937C97.9449 25.8171 97.9199 25.9501 97.924 26.0838C97.9162 26.2059 97.9342 26.3284 97.9768 26.4433C98.0195 26.5583 98.0859 26.6633 98.1718 26.7518C98.2577 26.8404 98.3614 26.9103 98.4762 26.9576C98.591 27.0049 98.7146 27.0284 98.8391 27.0265C98.9951 27.0254 99.1504 27.0082 99.3027 26.975V26.4681H98.5408V25.8739H100V27.4108Z" fill="#231F20"/>
<path d="M36.139 32.8298V29.7124H36.8647V30.9007H37.9571V29.7124H38.6867V32.8298H37.9571V31.5028H36.8647V32.8298H36.139Z" fill="#231F20"/>
<path d="M41.1134 32.8811C40.7877 32.8811 40.4695 32.7858 40.1991 32.6074C39.9287 32.429 39.7185 32.1754 39.5952 31.8792C39.4718 31.583 39.4411 31.2575 39.5067 30.9441C39.5723 30.6306 39.7314 30.3435 39.9637 30.1192C40.196 29.8949 40.4909 29.7434 40.811 29.6844C41.1311 29.6253 41.4618 29.6614 41.7611 29.7877C42.0603 29.9139 42.3146 30.1249 42.4914 30.3936C42.6683 30.6624 42.7597 30.9767 42.7541 31.2967C42.7635 31.5096 42.7273 31.7221 42.6478 31.9204C42.5683 32.1187 42.4473 32.2983 42.2926 32.4477C42.138 32.5971 41.9531 32.7128 41.7499 32.7875C41.5468 32.8622 41.3299 32.8941 41.1134 32.8811ZM42.0285 31.2967C42.0152 31.1207 41.9499 30.9524 41.8407 30.8124C41.7315 30.6723 41.5831 30.5666 41.4137 30.5081C41.2443 30.4497 41.0612 30.4411 40.8869 30.4834C40.7126 30.5256 40.5546 30.6169 40.4322 30.746C40.3099 30.8752 40.2286 31.0365 40.1981 31.2104C40.1677 31.3843 40.1895 31.563 40.261 31.7249C40.3324 31.8868 40.4504 32.0246 40.6003 32.1216C40.7503 32.2186 40.9258 32.2706 41.1053 32.2711C41.2337 32.2704 41.3605 32.2437 41.4778 32.1926C41.5951 32.1415 41.7004 32.0672 41.7871 31.9742C41.8738 31.8812 41.94 31.7715 41.9815 31.6522C42.0231 31.5329 42.039 31.4065 42.0285 31.2808V31.2967Z" fill="#231F20"/>
<path d="M44.0803 32.8298V30.3224H43.1854V29.7124H45.6968V30.3224H44.8059V32.8298H44.0803Z" fill="#231F20"/>
<path d="M47.0714 31.99C47.0667 32.0213 47.0694 32.0533 47.0795 32.0833C47.0896 32.1133 47.1066 32.1404 47.1294 32.1628C47.1521 32.1851 47.1799 32.202 47.2104 32.2119C47.2409 32.2218 47.2734 32.2245 47.3052 32.2198H48.5146V32.8298H47.1279C46.5796 32.8298 46.3217 32.6556 46.3217 32.1366V29.7124H48.5065V30.3224H47.0714V30.9284H48.4017V31.5266H47.0714V31.99Z" fill="#231F20"/>
<path d="M50.0666 31.9742C50.0612 32.0073 50.0637 32.0413 50.0741 32.0732C50.0845 32.1051 50.1024 32.1342 50.1263 32.1581C50.1502 32.182 50.1795 32.2 50.2119 32.2107C50.2442 32.2214 50.2787 32.2246 50.3125 32.2198H51.4734V32.8298H50.1431C49.5949 32.8298 49.3369 32.6556 49.3369 32.1366V29.7124H50.0585L50.0666 31.9742Z" fill="#231F20"/>
<path d="M52.0257 32.0015C52.3502 32.1579 52.7045 32.2458 53.0657 32.2592C53.3559 32.2592 53.5333 32.1997 53.5696 31.9818C53.6058 31.7639 53.2632 31.6649 52.8923 31.554L52.715 31.4905C52.5076 31.4478 52.3216 31.3364 52.188 31.1749C52.0544 31.0133 51.9814 30.8115 51.9813 30.6033C51.9813 30.0607 52.4368 29.6606 53.2511 29.6606C53.5729 29.6669 53.8895 29.7427 54.1783 29.8825V30.4844C53.8816 30.3657 53.5669 30.2963 53.2471 30.2786C52.8722 30.2786 52.715 30.4172 52.7109 30.5954C52.7109 30.5954 52.711 30.7657 52.9407 30.837L53.106 30.8964C53.8074 31.1182 54.3435 31.2926 54.3153 31.9739C54.2871 32.6552 53.7631 32.881 53.0818 32.881C52.7203 32.8732 52.3651 32.7865 52.0418 32.6274L52.0257 32.0015Z" fill="#231F20"/>
<path d="M57.0363 31.9742C57.0363 32.1009 57.0766 32.2198 57.2821 32.2198H58.4431V32.8298H57.1088C56.5606 32.8298 56.3026 32.6556 56.3026 32.1366V29.7124H57.0241L57.0363 31.9742Z" fill="#231F20"/>
<path d="M59.467 32.8298V30.3224H58.5762V29.7124H61.0876V30.3224H60.1967V32.8298H59.467Z" fill="#231F20"/>
<path d="M61.8455 32.8296V29.7121H63.0145C63.2199 29.7086 63.4237 29.7475 63.6128 29.8262C63.8019 29.905 63.972 30.0221 64.1122 30.1696C64.2524 30.317 64.3596 30.4917 64.4267 30.6825C64.4938 30.8732 64.5195 31.0756 64.502 31.2767C64.5203 31.4773 64.4951 31.6796 64.4281 31.87C64.3611 32.0605 64.2538 32.2347 64.1133 32.3814C63.9727 32.5281 63.8021 32.644 63.6127 32.7213C63.4233 32.7985 63.2195 32.8354 63.0145 32.8296H61.8455ZM62.8411 32.2195C62.9681 32.2309 63.096 32.2139 63.2153 32.1698C63.3346 32.1258 63.4423 32.0558 63.5303 31.9652C63.6183 31.8746 63.6843 31.7655 63.7234 31.6463C63.7625 31.5271 63.7737 31.4007 63.7562 31.2767C63.7562 30.6785 63.4619 30.3222 62.8411 30.3222H62.571V32.2195H62.8411Z" fill="#231F20"/>
<path d="M65.5178 32.188C65.8121 32.188 65.8766 32.3424 65.8766 32.5365C65.8828 32.5839 65.8776 32.632 65.8617 32.6771C65.8457 32.7223 65.8193 32.7633 65.7845 32.7967C65.7497 32.8301 65.7076 32.8551 65.6613 32.8698C65.615 32.8844 65.5659 32.8883 65.5178 32.8812C65.2357 32.8812 65.155 32.7306 65.155 32.5365C65.155 32.3424 65.2115 32.188 65.5178 32.188Z" fill="#231F20"/>
</g>
<defs>
<clipPath id="clip0_2_286">
<rect width="100" height="33" fill="white"/>
</clipPath>
</defs>
</svg>
