<svg width="18" height="12" viewBox="0 0 18 12" fill="none" xmlns="http://www.w3.org/2000/svg">
<g clip-path="url(#clip0_2_280)">
<path d="M9.00273 6.71622L0.980724 0H17.0193L9.00273 6.71622ZM12.1102 5.70253L17.989 11.3553C17.9947 11.3188 17.9947 11.2815 17.989 11.245V0.776677L12.1102 5.70253ZM5.88977 5.70253L-8.89506e-06 0.771296V11.2396C-0.00569365 11.2761 -0.00569365 11.3134 -8.89506e-06 11.3499L5.8788 5.69688L5.88977 5.70253ZM11.1736 6.49024L9.39941 7.97795C9.33869 8.02807 9.26971 8.0672 9.19555 8.09363H9.14047C9.09489 8.10144 9.04831 8.10144 9.00273 8.09363C8.93342 8.09383 8.86456 8.08263 8.79887 8.06054C8.72599 8.03497 8.65867 7.99572 8.60053 7.94486L6.83196 6.4628L1.09089 11.9724H16.9091L11.1736 6.49024Z" fill="black"/>
</g>
<defs>
<clipPath id="clip0_2_280">
<rect width="18" height="12" fill="white"/>
</clipPath>
</defs>
</svg>
