<svg width="9" height="16" viewBox="0 0 9 16" fill="none" xmlns="http://www.w3.org/2000/svg">
<path d="M8.60605 2.60624C8.60605 2.19824 8.60605 1.79624 8.60605 1.40624V0.362242C8.60605 0.302242 8.60605 0.278242 8.52805 0.278242L8.20403 0.248243C7.60403 0.248243 7.04602 0.206241 6.47002 0.200241C5.96799 0.194485 5.47002 0.290412 5.00605 0.482242C4.32631 0.759954 3.7773 1.28534 3.47002 1.95224C3.23694 2.4499 3.11611 2.99271 3.11604 3.54224C3.11604 4.23224 3.11604 4.92224 3.11604 5.61224V5.69024H0.896069C0.824069 5.69024 0.800049 5.69024 0.800049 5.78624C0.800049 6.61424 0.800049 7.44224 0.800049 8.27024C0.800049 8.36624 0.800069 8.36624 0.896069 8.36624H3.11003V8.45024C3.11003 10.6662 3.11003 12.8802 3.11003 15.0922V15.2002H5.88804V15.0382C5.88804 12.8542 5.88804 10.6662 5.88804 8.47424V8.36624H8.04202C8.18602 8.36624 8.18002 8.36624 8.19802 8.22224C8.24002 7.85624 8.288 7.48424 8.33 7.11824C8.372 6.75224 8.44403 6.23024 8.50403 5.79224C8.50403 5.69024 8.50401 5.69024 8.40801 5.69024H6.00801H5.88804V5.63024C5.88804 5.06624 5.88804 4.50824 5.88804 3.94424C5.88915 3.79104 5.9052 3.63831 5.93601 3.48824C5.95857 3.31426 6.03584 3.15193 6.15662 3.02468C6.27739 2.89744 6.43544 2.81184 6.60801 2.78024C6.80537 2.73784 7.00622 2.71374 7.20801 2.70824C7.64601 2.70824 8.08405 2.70824 8.52205 2.70824C8.58805 2.69624 8.60605 2.67224 8.60605 2.60624Z" fill="black"/>
</svg>
