<svg width="16" height="16" viewBox="0 0 16 16" fill="none" xmlns="http://www.w3.org/2000/svg">
<path d="M8.03008 5.594C7.51032 5.59638 7.00289 5.75284 6.57205 6.04358C6.1412 6.33432 5.80628 6.74629 5.60957 7.22739C5.41286 7.7085 5.36324 8.23713 5.46697 8.74644C5.5707 9.25575 5.82308 9.72287 6.19229 10.0887C6.56149 10.4546 7.03095 10.7027 7.54119 10.8018C8.05142 10.9009 8.57955 10.8464 9.05884 10.6453C9.53813 10.4442 9.947 10.1055 10.2338 9.67204C10.5206 9.23856 10.6725 8.72976 10.6701 8.21C10.6653 7.51351 10.3849 6.84725 9.89014 6.35699C9.39538 5.86674 8.72659 5.5924 8.03008 5.594ZM11.0301 1.898H4.93406C4.10584 1.90405 3.31384 2.23853 2.73203 2.828C2.44235 3.11648 2.2131 3.45977 2.05754 3.83785C1.90199 4.21592 1.82331 4.62119 1.8261 5.03V11.528C1.83086 12.355 2.1631 13.1464 2.75012 13.7289C3.33714 14.3114 4.13108 14.6376 4.95808 14.636H11.054C11.8795 14.6266 12.6682 14.2928 13.2498 13.7068C13.8313 13.1208 14.159 12.3296 14.1621 11.504V5.006C14.1573 4.17902 13.8251 3.38762 13.238 2.80509C12.651 2.22257 11.8571 1.8964 11.0301 1.898ZM8.03008 12.23C7.23619 12.2324 6.45943 11.9993 5.79802 11.5602C5.13661 11.1211 4.62021 10.4957 4.31421 9.76319C4.00821 9.03063 3.92633 8.22379 4.07888 7.44469C4.23144 6.6656 4.6116 5.94923 5.17129 5.38619C5.73098 4.82315 6.44507 4.43872 7.22324 4.28151C8.00141 4.1243 8.80868 4.20137 9.54304 4.50299C10.2774 4.8046 10.9059 5.31721 11.3489 5.97598C11.7919 6.63476 12.0297 7.41011 12.032 8.204C12.0369 9.26184 11.6233 10.2787 10.8815 11.0329C10.1397 11.787 9.12982 12.2173 8.07205 12.23H8.03008ZM12.1401 5.078C11.9509 5.08038 11.7652 5.02646 11.6068 4.92309C11.4483 4.81972 11.3242 4.67157 11.2502 4.49747C11.1761 4.32338 11.1555 4.13119 11.191 3.94535C11.2264 3.75951 11.3163 3.5884 11.4492 3.45378C11.5822 3.31916 11.7521 3.2271 11.9375 3.18931C12.1229 3.15151 12.3153 3.16969 12.4903 3.24153C12.6653 3.31337 12.815 3.43563 12.9204 3.59276C13.0258 3.7499 13.082 3.93481 13.082 4.124C13.0828 4.2485 13.0591 4.37193 13.0122 4.48725C12.9653 4.60257 12.8961 4.70751 12.8086 4.7961C12.7211 4.88469 12.6171 4.95518 12.5024 5.00355C12.3877 5.05192 12.2646 5.07722 12.1401 5.078ZM15.35 11.498C15.3501 12.6169 14.9094 13.6909 14.1232 14.4871C13.3371 15.2834 12.2689 15.7378 11.15 15.752H5.05403C3.93509 15.7521 2.86119 15.3113 2.06494 14.5252C1.2687 13.739 0.814253 12.6708 0.800049 11.552V5.054C0.799959 3.93506 1.24072 2.86115 2.02686 2.0649C2.81299 1.26866 3.8812 0.814207 5.00005 0.800003H11.0961C12.2156 0.799892 13.2902 1.24047 14.0874 2.02644C14.8846 2.81242 15.3403 3.88061 15.3561 5L15.35 11.498Z" fill="black"/>
</svg>
