<svg width="27" height="30" viewBox="0 0 27 30" fill="none" xmlns="http://www.w3.org/2000/svg">
<g clip-path="url(#clip0_2_206)">
<path d="M10.2134 4.27573H16.7604V2.21794C16.7604 1.33089 18.192 0.115648 19.0824 0.0180722C21.387 -0.230302 22.2599 2.35971 21.937 4.27573H26.9651V30.0002H0V4.27573H5.03687C4.70516 2.35971 5.57811 -0.230302 7.88266 0.0180722C8.7556 0.115648 10.2134 1.28654 10.2134 2.21794V4.27573ZM7.51599 1.88096C7.34204 1.92564 7.18591 2.02354 7.06876 2.16163C6.95161 2.29972 6.87914 2.47139 6.86129 2.6528C6.75642 3.97532 6.75642 5.30424 6.86129 6.62676C6.99223 8.04604 8.24055 7.95709 8.40641 7.04343C8.50692 5.6704 8.50692 4.29177 8.40641 2.91874C8.35403 2.40425 8.1707 1.82774 7.51599 1.88096ZM19.2658 1.88096C19.0918 1.92564 18.9356 2.02354 18.8185 2.16163C18.7013 2.29972 18.6289 2.47139 18.6111 2.6528C18.5019 4.06991 18.5019 5.49335 18.6111 6.91046C18.742 7.93944 19.9729 8.00153 20.1474 6.91046C20.2524 5.58498 20.2524 4.25331 20.1474 2.92784C20.1038 2.40448 19.9205 1.82774 19.2658 1.88096ZM25.1756 11.2392H1.81573V28.0931L2.02522 28.3062H24.9661L25.1756 28.0931V11.2392Z" fill="#F6D710"/>
<path d="M8.53735 12.8H5.03687V16.3571H8.53735V12.8Z" fill="#F6D710"/>
<path d="M15.2502 12.8H11.7498V16.3571H15.2502V12.8Z" fill="#F6D710"/>
<path d="M21.9631 12.8H18.4626V16.3571H21.9631V12.8Z" fill="#F6D710"/>
<path d="M15.2502 17.9185H11.7498V21.4755H15.2502V17.9185Z" fill="#F6D710"/>
<path d="M15.2502 23.0366H11.7498V26.5937H15.2502V23.0366Z" fill="#F6D710"/>
<path d="M8.53735 21.4755H5.03687V18.1313L5.24637 17.9185H8.31912L8.53735 18.1313V21.4755Z" fill="#F6D710"/>
<path d="M21.9631 21.4755H18.4626V18.1313L18.6722 17.9185H21.7536L21.9631 18.1313V21.4755Z" fill="#F6D710"/>
<path d="M8.53735 26.5937H5.03687V23.2495L5.24637 23.0366H8.31912L8.53735 23.2495V26.5937Z" fill="#F6D710"/>
<path d="M21.9631 26.5937H18.4626V23.2495L18.6722 23.0366H21.7536L21.9631 23.2495V26.5937Z" fill="#F6D710"/>
</g>
<defs>
<clipPath id="clip0_2_206">
<rect width="27" height="30" fill="white"/>
</clipPath>
</defs>
</svg>
