<svg width="21" height="20" viewBox="0 0 21 20" fill="none" xmlns="http://www.w3.org/2000/svg">
<g clip-path="url(#clip0_1_437)">
<path d="M9.64206 15.2602L9.80545 17.7806L9.72376 18.5122L9.47858 19.3252L9.07002 19.7317L8.74315 19.8943H7.92603L7.76265 19.8131L5.88323 19.8943L5.71985 19.9757L5.06611 19.8943H1.52801L1.44632 19.5692H1.28284L1.20114 19.8131L0.956068 19.8943L0.547508 19.6503L0.138948 18.9187L-0.0245361 17.6178V15.5041L0.057156 15.3416V13.7155L-0.0245361 13.6342L0.138948 11.5203L0.057156 11.3577L0.302332 10.4635L0.22064 10.057L0.6292 7.86172L0.956068 6.96753L1.36463 6.56103L1.20114 6.23571L1.52801 5.17896L2.09996 3.95944L3.32564 2.00811L4.55132 0.46347L5.85879 -0.0244141L6.34904 0.138148H8.8821L9.61753 0.626032L9.69922 1.11392L9.53584 1.84554L9.29066 2.00811L8.55523 3.39018L8.06498 3.95944L7.49303 5.0162L6.67591 7.21148L6.51243 8.02448L6.59412 8.43099L7.08447 8.91867H8.55523L9.20897 9.16262L9.53584 9.6505L9.69922 10.4635V12.6586L9.61753 12.8212V13.4716L9.53584 13.6342V15.0976L9.64206 15.2602ZM0.408562 13.0651L0.32687 12.9837L0.245178 13.1463L0.408562 13.0651ZM0.653738 15.9106L0.898814 15.9918V15.8292L0.817122 15.6667L0.571946 15.5853L0.653738 15.9106ZM1.22568 16.4797L1.14399 16.3171V16.4797H1.22568ZM1.87942 17.6992L1.79763 17.6178L1.71593 17.7806L1.87942 17.6992ZM2.45136 19.0813L2.77823 19.1627L2.53306 18.6748L2.1245 18.4308V18.5936L2.45136 19.0813ZM2.61475 14.122L2.85992 14.2032L3.43187 13.9593L3.59535 13.7155L3.26848 13.6342L2.53306 13.7967V13.9593L2.61475 14.122ZM2.85992 15.6667L2.77823 15.5041V15.7481L2.85992 15.6667ZM2.94162 12.0895L2.85992 11.9268V12.1707L2.94162 12.0895ZM3.43187 15.2602L3.35018 15.0162L3.18679 15.1788L3.43187 15.2602ZM3.43187 9.48774H3.59535V9.32518L3.43187 9.16262H3.26848V9.32518L3.43187 9.48774ZM3.67704 14.4472L4.00391 14.122L3.92222 13.9593H3.75874L3.51366 14.2032V14.4472H3.67704ZM4.00391 14.6911L4.0856 14.5285L4.00391 14.4472L3.84043 14.8537L4.00391 14.6911ZM4.41247 13.309L4.49416 13.1463L4.41247 12.9837H4.24899V13.2277L4.41247 13.309ZM4.82103 15.5041H4.98442L4.90273 15.3416H4.65755L4.82103 15.5041ZM5.39298 11.6016V11.4391L5.1479 11.3577L5.39298 11.6016ZM5.71985 19.0001L5.88323 18.8373V18.6748H5.71985L5.55646 18.9187L5.71985 19.0001ZM6.04671 15.1788H6.2101L6.29179 14.9351L5.88323 15.0976L6.04671 15.1788ZM6.53697 16.3983L6.37358 16.0732L6.2101 16.4797L6.53697 16.3983ZM6.86383 14.122L6.94553 13.9593L6.78214 13.8781L6.61866 13.9593L6.53697 14.122H6.86383ZM7.76265 15.9918L8.00782 15.9106L8.2529 15.6667L7.76265 15.4227L7.59926 15.5041L7.76265 15.9918ZM8.90664 1.92692L8.98833 1.84554L8.82494 1.68298L8.90664 1.92692ZM9.2335 9.73168L9.3152 9.56912L9.15171 9.48774L9.07002 9.6505L9.2335 9.73168ZM11.1945 15.7481L11.2763 15.5853V14.8537L11.358 14.6911V13.7155L11.2763 13.6342V11.2765L11.5214 10.9512L11.4397 10.7886V10.1382L11.6849 8.91867L12.0934 8.51217L11.8483 8.18705V8.02448L12.2568 7.29266L12.3385 6.31709L13.5642 3.39018L15.2801 0.951156L16.3424 0.300908L16.9962 0.138148L18.6304 0.0569661L18.7938 0.138148H20.2646L20.6732 0.38209L20.8366 0.707412V1.43904L20.1828 2.82111L19.5292 3.79668L19.3657 3.87806L18.7938 4.85363L18.7121 5.26014L17.8133 7.1301L17.7315 8.34961L18.2218 8.75611L19.7743 8.83749L20.6732 9.56912L20.9183 11.6016V16.5611L21 17.2927L20.9183 17.4553L20.7549 19.0813L20.5097 19.4878L19.6109 19.8943H18.14L17.5681 19.7317L17.3229 19.8943H16.3424L15.1167 19.7317L14.7082 19.9757L13.7277 19.8131H12.2568L11.7666 19.5692L11.358 18.8373L11.1945 18.2683V15.7481ZM12.3385 9.6505L12.6654 9.56912V9.40656L12.502 9.32518L12.0934 9.40656L12.3385 9.6505ZM12.5837 12.9025L12.8288 12.9837V12.7398H12.502L12.5837 12.9025ZM12.9922 8.83749L13.0739 8.67473L12.9922 8.51217H12.8288L12.7471 8.67473L12.9922 8.83749ZM13.5642 11.683L13.4825 11.6016L13.4008 11.7642L13.5642 11.683ZM13.7277 16.4797L13.8094 16.3983L13.7277 16.1546L13.5642 16.2357V16.3983L13.7277 16.4797ZM13.8911 6.31709L13.7277 6.23571V6.39847L13.8911 6.31709ZM13.8094 12.0895L14.1362 12.0081L14.2996 11.7642L13.9727 11.683L13.7277 11.9268L13.8094 12.0895ZM14.5448 15.3416L14.463 15.2602L14.3813 15.4227L14.5448 15.3416ZM14.5448 18.5936L14.463 18.5122L14.3813 18.6748L14.5448 18.5936ZM14.6265 12.9025L14.7899 12.8212L14.8716 12.3333H15.035L15.4436 12.5772L15.9339 12.3333L16.0155 12.0081L15.5253 12.2521H15.2801L15.035 12.0895L15.4436 11.1951L15.035 11.6016L14.9533 11.4391L15.1984 11.2765L15.1167 11.1138L14.7899 11.1951L14.6265 11.4391V12.4146L14.463 12.8212L14.6265 12.9025ZM15.1167 14.6911L15.035 14.5285H14.8716V14.6911H15.1167ZM15.2801 19.2438L15.1984 19.1627L15.1167 19.2438H15.2801ZM15.607 16.6423H15.8522L16.0972 16.3983H15.9339L15.6887 16.1546L15.4436 16.0732V16.5611L15.607 16.6423ZM16.2607 14.7723L16.0155 14.4472V14.6097L16.2607 14.7723ZM16.4241 12.6586L16.2607 12.7398L16.179 12.9025L16.4241 12.6586ZM16.3424 15.8292L16.6693 15.9106L16.5876 15.6667L16.4241 15.4227L16.5058 15.2602L16.2607 15.3416L16.3424 15.8292ZM16.5876 18.1871V18.0243L16.3424 17.8618L16.2607 18.0243L16.5876 18.1871ZM16.751 11.1951L16.6693 11.1138L16.5876 11.1951H16.751ZM17.2412 12.5772L17.1595 12.4146L17.4864 11.9268L17.3229 11.8456L16.9962 12.0895V12.3333L17.2412 12.5772ZM17.6498 17.7806L17.5681 17.6178L17.4047 17.6992V17.8618L17.6498 17.7806ZM18.3035 17.2927L18.3852 17.1301L17.9767 16.9676V17.2927H18.3035ZM19.6109 13.8781L19.5292 13.7155L19.3657 13.6342V13.8781H19.6109Z" fill="black"/>
</g>
<defs>
<clipPath id="clip0_1_437">
<rect width="21" height="20" fill="white"/>
</clipPath>
</defs>
</svg>
